<svg width="14" height="16" viewBox="0 0 14 16" fill="none" xmlns="http://www.w3.org/2000/svg">
<path d="M12.8335 7.33338C12.8335 6.37671 12.8322 5.70934 12.7645 5.20577C12.7069 4.7776 12.608 4.52541 12.4605 4.34575L12.394 4.27283C12.2098 4.0884 11.9504 3.96818 11.4611 3.90239C10.9575 3.83469 10.2902 3.83338 9.3335 3.83338H7.3335C6.37683 3.83338 5.70946 3.83469 5.20589 3.90239C4.77772 3.95997 4.52553 4.05889 4.34587 4.20642L4.27295 4.27283C4.08852 4.45705 3.96831 4.71652 3.90251 5.20577C3.83481 5.70934 3.8335 6.37671 3.8335 7.33338V10.6667C3.8335 11.6234 3.83481 12.2907 3.90251 12.7943C3.96831 13.2836 4.08852 13.543 4.27295 13.7273L4.34587 13.7937C4.52553 13.9412 4.77772 14.0401 5.20589 14.0977C5.70946 14.1654 6.37683 14.1667 7.3335 14.1667H9.3335C10.2902 14.1667 10.9575 14.1654 11.4611 14.0977C11.9504 14.0319 12.2098 13.9117 12.394 13.7273L12.4605 13.6543C12.608 13.4747 12.7069 13.2225 12.7645 12.7943C12.8322 12.2907 12.8335 11.6234 12.8335 10.6667V7.33338ZM13.8335 10.6667C13.8335 11.5952 13.8348 12.3421 13.756 12.9278C13.6804 13.4904 13.5236 13.9699 13.1733 14.3581L13.1011 14.4343C12.7 14.8357 12.1945 15.0085 11.5946 15.0892C11.0088 15.168 10.262 15.1667 9.3335 15.1667H7.3335C6.40502 15.1667 5.65815 15.168 5.07243 15.0892C4.5098 15.0136 4.03035 14.8568 3.64209 14.5066L3.56592 14.4343C3.16449 14.0332 2.99166 13.5278 2.91097 12.9278C2.83221 12.3421 2.8335 11.5952 2.8335 10.6667V7.33338C2.8335 6.4049 2.83221 5.65803 2.91097 5.07231C2.99166 4.47233 3.16449 3.96688 3.56592 3.5658L3.64209 3.49353C4.03035 3.1433 4.5098 2.98652 5.07243 2.91085C5.65815 2.83209 6.40502 2.83338 7.3335 2.83338H9.3335C10.262 2.83338 11.0088 2.83209 11.5946 2.91085C12.1945 2.99154 12.7 3.16437 13.1011 3.5658L13.1733 3.64197C13.5236 4.03022 13.6804 4.50967 13.756 5.07231C13.8348 5.65803 13.8335 6.4049 13.8335 7.33338V10.6667Z" fill="#5C5C5C"/>
<path d="M0.833496 10.6667V6.66671C0.833496 5.42385 0.832519 4.44111 0.93571 3.67387C1.04083 2.89242 1.26221 2.25979 1.76123 1.76111C2.26019 1.26258 2.89309 1.04081 3.67464 0.935588C4.44178 0.832345 5.42405 0.833374 6.66683 0.833374H9.3335C9.99654 0.833374 10.6322 1.09696 11.1011 1.5658C11.5699 2.03464 11.8335 2.67033 11.8335 3.33337H10.8335C10.8335 2.93555 10.6753 2.55413 10.394 2.27283C10.1127 1.99152 9.73132 1.83337 9.3335 1.83337H6.66683C5.39594 1.83337 4.49306 1.83494 3.80811 1.92712C3.13761 2.01739 2.75063 2.18609 2.46826 2.46814C2.1861 2.75006 2.0168 3.13662 1.9266 3.80733C1.83445 4.49242 1.8335 5.39557 1.8335 6.66671V10.6667C1.8335 11.0645 1.99165 11.4459 2.27295 11.7273C2.55425 12.0086 2.93567 12.1667 3.3335 12.1667V13.1667C2.67046 13.1667 2.03476 12.9031 1.56592 12.4343C1.09708 11.9654 0.833496 11.3297 0.833496 10.6667Z" fill="#5C5C5C"/>
</svg>
